<svg id="Layer_3" data-name="Layer 3" xmlns="http://www.w3.org/2000/svg" viewBox="0 0 708.77 141.61"><defs><style>.cls-1{font-size:136.62px;font-family:Ubuntu-MediumItalic, Ubuntu;font-weight:500;font-style:italic;}.cls-1,.cls-5{fill:#01d770;}.cls-2,.cls-3,.cls-4{fill:#fff;}.cls-2{letter-spacing:-0.01em;}.cls-3{letter-spacing:0em;}.cls-4{letter-spacing:0.06em;}.cls-5{fill-rule:evenodd;}</style></defs><text class="cls-1" transform="translate(172.55 118.41)">Bit<tspan class="cls-2" x="178.42" y="0">c</tspan><tspan class="cls-3" x="239.9" y="0">ode</tspan><tspan class="cls-4" x="467.23" y="0">s</tspan></text><path id="path-0" class="cls-5" d="M47.51,141.61H44.12c-14.29-9.39-30.2-17.16-44-27.06.66-8-2-19.41,2.9-23.2C-1.77,88.1,1.65,76.62.63,69.6,0,67,3.32,68.42,3.53,66.7-2.06,63.42,1.74,50.76.63,43c41.3-8.8,75.48-24.73,107.29-43,16.45,9.49,33.55,18.33,49.3,28.52-.88,8,2.67,20.39-3.87,22.71,1.77.17,3.83.05,3.87,1.93-1.06,6.51,2.46,17.61-2.42,20.31,4.55,3.82,1.58,15.18,2.42,22.71C125.12,115.79,90.3,132.69,47.51,141.61ZM107.92,8.7c-7.6,5.61-16.34,10.08-24.65,15C94.56,29.63,104.43,37,115.66,43c8.56-5,17.68-9.38,25.61-15C129.93,21.82,119.4,14.79,107.92,8.7ZM150,32.38c-9.23,6.08-19.53,11.07-30,15.95v11.6c11-4.66,20.8-10.45,30.44-16.43C149.62,39.68,152.54,34.75,150,32.38Zm-89.89.49a2.44,2.44,0,0,0-1,0c-11.46,4-25.18,9.59-38.19,13.53C32.31,51.77,42.6,58.23,53.79,63.8c12.81-4.27,26.7-7.45,38.67-12.57C81.08,46.23,71,37.54,60.08,32.87ZM8.84,59.45c10.38,6.29,21,12.42,31.9,18.85C44,80.2,49,83.92,51.86,84.1c3.09.2,7.5-2.32,11.11-3.38,11.67-3.45,22.26-6.85,32.87-10.64A77.5,77.5,0,0,1,96.32,59C82,64.33,67.93,69.88,50.89,72.5,37,64.63,22.81,57.08,8.84,49.3ZM118.55,74c.32,3.71-.63,8.69.49,11.6,10.09-5.22,20.42-10.2,30-16,.39-3.15,1.08-8.58,0-11.6C139.64,64.1,128.82,68.74,118.55,74ZM8.36,85.55C22.9,93.24,36.42,102,50.89,109.71q23.33-6.39,45-14.5c-.32-3.55.64-8.37-.48-11.11-6.47,2.7-13.28,5.76-20.78,8.21-5.9,1.93-18,6.13-24.17,5.32-2.72-.35-6.9-3.28-10.63-5.32-10-5.41-23.67-13.22-31.42-17.4ZM118.07,97.63v11.6c11.4-5.52,23.07-10.76,32.38-18.37-.31-3.22.65-7.72-.48-10.14C139.68,86.69,129.1,92.38,118.07,97.63ZM8.36,111.16c9.51,6,19.44,11.56,29.48,17.4,3.1,1.81,7.61,5.58,10.15,5.8,2.75.24,8.65-2.39,12.09-3.38,12.28-3.56,23.63-7.7,34.79-11.6-.31-3.55.65-8.37-.48-11.11C80,114.37,65,119.77,47.51,122.77,34.68,115.29,21.31,108.36,8.36,101Z"/></svg>