<svg id="Layer_3" data-name="Layer 3" xmlns="http://www.w3.org/2000/svg" viewBox="0 0 708.77 141.61"><defs><style>.cls-1,.cls-3{fill:#01d770;}.cls-2{fill:#fff;}.cls-3{fill-rule:evenodd;}</style></defs><path class="cls-1" d="M212,119.5q-7,0-14.68-.61a97.13,97.13,0,0,1-13.73-2l22-91.68a97.34,97.34,0,0,1,13-1.91q6.82-.54,13.8-.54a86.46,86.46,0,0,1,11.68.81,34.15,34.15,0,0,1,10.72,3.22,21.63,21.63,0,0,1,7.86,6.55q3.08,4.17,3.07,10.73a25.22,25.22,0,0,1-4,13.66q-4,6.42-13.59,10.38a20.54,20.54,0,0,1,9.29,7.11A18.18,18.18,0,0,1,260.67,86q0,16-12.5,24.73T212,119.5Zm-1.47-43.85-7,29.1c1.27.18,3,.34,5.06.47s4.42.21,7,.21a69.57,69.57,0,0,0,9.44-.68,29.74,29.74,0,0,0,8.89-2.6,17.8,17.8,0,0,0,6.63-5.46,14.84,14.84,0,0,0,2.67-9.16,10.7,10.7,0,0,0-4-8.54q-3.94-3.34-13.1-3.34Zm3.21-13.26H226.9a41,41,0,0,0,8.21-.81,20.88,20.88,0,0,0,6.9-2.67,15,15,0,0,0,4.72-4.58,12,12,0,0,0,1.78-6.69q0-6.28-4.71-8.61t-12.64-2.32q-3.15,0-6.28.21c-2.1.13-3.78.29-5.06.47Z"/><path class="cls-1" d="M285.53,118.41H269L286.22,47h16.53Zm12.3-82.25A9.94,9.94,0,0,1,291.41,34c-1.83-1.46-2.74-3.64-2.74-6.56a10.94,10.94,0,0,1,3.49-8.33,11.29,11.29,0,0,1,8-3.28,10.07,10.07,0,0,1,6.49,2.25,8,8,0,0,1,2.8,6.63A10.61,10.61,0,0,1,305.89,33,11.71,11.71,0,0,1,297.83,36.16Z"/><path class="cls-1" d="M326,28.1l17.21-2.73L338,47h23.38l-3.27,13.66H334.67L327.83,88.9c-.44,2-.74,3.67-.92,5a28.79,28.79,0,0,0-.26,3.63,15,15,0,0,0,.35,3.21,5.93,5.93,0,0,0,1.36,2.73,7.48,7.48,0,0,0,3,1.91,15.66,15.66,0,0,0,5.39.75,26.18,26.18,0,0,0,7.11-1,51.67,51.67,0,0,0,6-2l1.23,13.25a55.48,55.48,0,0,1-7.93,2.6,45.74,45.74,0,0,1-11.2,1.22q-11.75,0-16.8-5.12t-5.06-14a49.43,49.43,0,0,1,.48-6.76A75.11,75.11,0,0,1,312,86.85Z"/><path class="cls-2" d="M364.22,91.36a53.17,53.17,0,0,1,2.94-17.69,45.36,45.36,0,0,1,8.4-14.76,39.35,39.35,0,0,1,13.39-10,42.22,42.22,0,0,1,18-3.69,50,50,0,0,1,9.77.89,39.38,39.38,0,0,1,8.4,2.66L419.28,62a39.61,39.61,0,0,0-5.47-1.91,28.67,28.67,0,0,0-7.37-.82,23.11,23.11,0,0,0-10.59,2.39,24.1,24.1,0,0,0-8,6.49,29.71,29.71,0,0,0-5.06,9.7A39.27,39.27,0,0,0,381,89.72a26.23,26.23,0,0,0,.75,6.49,14.32,14.32,0,0,0,2.46,5.19,10.93,10.93,0,0,0,4.71,3.48,19.93,19.93,0,0,0,7.51,1.23,32.4,32.4,0,0,0,9-1.23,35.77,35.77,0,0,0,6.63-2.46L413.4,116a52.16,52.16,0,0,1-8.33,2.94,44.44,44.44,0,0,1-11.75,1.43,34,34,0,0,1-13-2.25,25.59,25.59,0,0,1-9.08-6.15,24.26,24.26,0,0,1-5.33-9.15A36.73,36.73,0,0,1,364.22,91.36Z"/><path class="cls-2" d="M451.8,120.32q-12.71,0-19.4-7.51T425.7,93a58.75,58.75,0,0,1,2.46-16.4,49.64,49.64,0,0,1,7.52-15.43,41.31,41.31,0,0,1,12.7-11.48,34.84,34.84,0,0,1,18-4.51q12.7,0,19.39,7.45t6.7,19.74a60.89,60.89,0,0,1-2.39,16.53,49.6,49.6,0,0,1-7.38,15.44A40.51,40.51,0,0,1,470,115.81,35.5,35.5,0,0,1,451.8,120.32Zm12.57-61.2a15.58,15.58,0,0,0-9.5,3.07,25.86,25.86,0,0,0-7,7.86,41.76,41.76,0,0,0-4.3,10.45,42.89,42.89,0,0,0-1.5,11q0,6.84,2.59,10.8t9.16,4a15.58,15.58,0,0,0,9.49-3.08,26,26,0,0,0,7-7.78,40.56,40.56,0,0,0,4.3-10.45A43.27,43.27,0,0,0,476.11,74q0-6.84-2.59-10.86T464.37,59.12Z"/><path class="cls-2" d="M526.94,120.32a26.53,26.53,0,0,1-11.07-2.12,20.17,20.17,0,0,1-7.58-5.8,23.83,23.83,0,0,1-4.31-8.75,41.74,41.74,0,0,1-1.36-10.93A49.86,49.86,0,0,1,505.83,75,46.1,46.1,0,0,1,515,60a44.23,44.23,0,0,1,14.56-10.38,47,47,0,0,1,19.56-3.89c.92,0,2,0,3.29.13a27.72,27.72,0,0,1,4.24.69l7.45-31.43,17.21-2.73L562.59,89.85a61.9,61.9,0,0,0-1,6.36,57,57,0,0,0-.34,6.08,40.06,40.06,0,0,0,.68,7.38,43.71,43.71,0,0,0,2.19,7.65l-14.76,2.18a33.36,33.36,0,0,1-2.59-7,36.81,36.81,0,0,1-8.34,5.4A26,26,0,0,1,526.94,120.32Zm26.33-60.38a30.52,30.52,0,0,0-6.28-.55,24.77,24.77,0,0,0-11.46,2.66,28.19,28.19,0,0,0-8.88,7.11A32.32,32.32,0,0,0,521,79.34a36.12,36.12,0,0,0-2,11.88,26.78,26.78,0,0,0,.62,5.88,14.17,14.17,0,0,0,2,4.78,10.05,10.05,0,0,0,3.62,3.28,11.42,11.42,0,0,0,5.53,1.23,16.14,16.14,0,0,0,7.72-1.78,24.91,24.91,0,0,0,6.35-4.92,58.14,58.14,0,0,1,.62-6c.31-2.09.7-4.14,1.15-6.15Z"/><path class="cls-2" d="M581.31,92.59a54,54,0,0,1,2.94-17.69,47.34,47.34,0,0,1,8.47-15.17A42.06,42.06,0,0,1,606,49.14a38,38,0,0,1,17.48-4q10.38,0,16.12,5.33a17.8,17.8,0,0,1,5.74,13.66q0,8.61-4.23,13.94a28.62,28.62,0,0,1-11,8.33,54.79,54.79,0,0,1-15.3,4.1q-8.54,1.09-17.28,1.36a1.15,1.15,0,0,0-.14.55v1.37q0,12.44,15.71,12.43a48.48,48.48,0,0,0,18.58-3.83l1.37,13.39a55.16,55.16,0,0,1-9.29,3,56.61,56.61,0,0,1-13.66,1.5A35.22,35.22,0,0,1,597,118.13,23.35,23.35,0,0,1,583,103.31,34.2,34.2,0,0,1,581.31,92.59Zm39.75-33.88a19,19,0,0,0-7.78,1.63,21.76,21.76,0,0,0-6.56,4.51,29.39,29.39,0,0,0-5,6.77,30.9,30.9,0,0,0-3.07,8.4q16.4-.54,23.84-4T630,65.81a7.16,7.16,0,0,0-2-4.92Q626,58.72,621.06,58.71Z"/><path class="cls-2" d="M670.38,106.8q6.57,0,10.39-2.12a7,7,0,0,0,3.82-6.49,7.1,7.1,0,0,0-2.46-5.67,40.61,40.61,0,0,0-8.6-5,67.45,67.45,0,0,1-6.08-3.14,21.1,21.1,0,0,1-4.85-3.83,16.83,16.83,0,0,1-3.28-5.12,18.16,18.16,0,0,1-1.23-7q0-10.66,7.78-16.95t22.55-6.28a47.43,47.43,0,0,1,12.22,1.44,37.6,37.6,0,0,1,8.13,2.93L702.9,62.39a34.82,34.82,0,0,0-15.85-4,25.92,25.92,0,0,0-4.58.41,13.78,13.78,0,0,0-4,1.37,8.2,8.2,0,0,0-2.93,2.66A7.2,7.2,0,0,0,674.35,67a6.21,6.21,0,0,0,2.52,5.12,37.53,37.53,0,0,0,7.31,4.17,73.67,73.67,0,0,1,7.65,4,21.4,21.4,0,0,1,5.19,4.3,15.61,15.61,0,0,1,3,5.33,22.82,22.82,0,0,1,1,7,21.58,21.58,0,0,1-2,9.36,20.62,20.62,0,0,1-6,7.38,29.6,29.6,0,0,1-9.63,4.85,44.43,44.43,0,0,1-13.11,1.77,55.39,55.39,0,0,1-9.09-.68,62.15,62.15,0,0,1-7-1.57,36.09,36.09,0,0,1-5.06-1.85,28.22,28.22,0,0,1-3.14-1.64l5.87-13c.64.37,1.57.85,2.8,1.44a39.62,39.62,0,0,0,4.24,1.71,45.8,45.8,0,0,0,5.33,1.43A30.2,30.2,0,0,0,670.38,106.8Z"/><path id="path-0" class="cls-3" d="M47.51,141.61H44.12c-14.29-9.39-30.2-17.16-44-27.06.66-8-2-19.41,2.9-23.2C-1.77,88.1,1.65,76.62.63,69.6,0,67,3.32,68.42,3.53,66.7-2.06,63.42,1.74,50.76.63,43c41.3-8.8,75.48-24.73,107.29-43,16.45,9.49,33.55,18.33,49.3,28.52-.88,8,2.67,20.39-3.87,22.71,1.77.17,3.83.05,3.87,1.93-1.06,6.51,2.46,17.61-2.42,20.31,4.55,3.82,1.58,15.18,2.42,22.71C125.12,115.79,90.3,132.69,47.51,141.61ZM107.92,8.7c-7.6,5.61-16.34,10.08-24.65,15C94.56,29.63,104.43,37,115.66,43c8.56-5,17.68-9.38,25.61-15C129.93,21.82,119.4,14.79,107.92,8.7ZM150,32.38c-9.23,6.08-19.53,11.07-30,15.95v11.6c11-4.66,20.8-10.45,30.44-16.43C149.62,39.68,152.54,34.75,150,32.38Zm-89.89.49a2.44,2.44,0,0,0-1,0c-11.46,4-25.18,9.59-38.19,13.53C32.31,51.77,42.6,58.23,53.79,63.8c12.81-4.27,26.7-7.45,38.67-12.57C81.08,46.23,71,37.54,60.08,32.87ZM8.84,59.45c10.38,6.29,21,12.42,31.9,18.85C44,80.2,49,83.92,51.86,84.1c3.09.2,7.5-2.32,11.11-3.38,11.67-3.45,22.26-6.85,32.87-10.64A77.5,77.5,0,0,1,96.32,59C82,64.33,67.93,69.88,50.89,72.5,37,64.63,22.81,57.08,8.84,49.3ZM118.55,74c.32,3.71-.63,8.69.49,11.6,10.09-5.22,20.42-10.2,30-16,.39-3.15,1.08-8.58,0-11.6C139.64,64.1,128.82,68.74,118.55,74ZM8.36,85.55C22.9,93.24,36.42,102,50.89,109.71q23.33-6.39,45-14.5c-.32-3.55.64-8.37-.48-11.11-6.47,2.7-13.28,5.76-20.78,8.21-5.9,1.93-18,6.13-24.17,5.32-2.72-.35-6.9-3.28-10.63-5.32-10-5.41-23.67-13.22-31.42-17.4ZM118.07,97.63v11.6c11.4-5.52,23.07-10.76,32.38-18.37-.31-3.22.65-7.72-.48-10.14C139.68,86.69,129.1,92.38,118.07,97.63ZM8.36,111.16c9.51,6,19.44,11.56,29.48,17.4,3.1,1.81,7.61,5.58,10.15,5.8,2.75.24,8.65-2.39,12.09-3.38,12.28-3.56,23.63-7.7,34.79-11.6-.31-3.55.65-8.37-.48-11.11C80,114.37,65,119.77,47.51,122.77,34.68,115.29,21.31,108.36,8.36,101Z"/></svg>