<svg id="Layer_1" data-name="Layer 1" xmlns="http://www.w3.org/2000/svg" viewBox="0 0 979.25 557.84"><defs><style>.cls-1{fill:#01d770;}</style></defs><path class="cls-1" d="M473.5,2.6A98.07,98.07,0,0,0,459,8.1l-2.36,1.14a40.1,40.1,0,0,0-11,7.78L232.7,229.8C-2.3,464.7,9.2,452.7,3.4,469.5c-2.5,7.2-2.8,9.3-2.8,21,0,11.3.4,14,2.7,21,13.6,41.1,58.9,59.3,98,39.4,8.1-4.2,9.9-5.9,198.5-194.3L461.56,194.92a40.24,40.24,0,0,1,56.88,0L678.3,354.6C781.8,458,868.3,544.1,870.5,545.7c11.1,8.4,26.2,13.3,41,13.3a68,68,0,0,0,68.2-64c.8-12.2-1.5-23.1-7.3-35l-1.64-3.38A40.22,40.22,0,0,0,963,445.69L748.6,231.4,534.33,17.12a40.35,40.35,0,0,0-11-7.78L521,8.2a93.2,93.2,0,0,0-15-5.7C497.9.7,481.5.7,473.5,2.6Z" transform="translate(-0.6 -1.16)"/></svg>