<?xml version="1.0" encoding="utf-8"?>
<!-- Generator: Adobe Illustrator 25.2.3, SVG Export Plug-In . SVG Version: 6.00 Build 0)  -->
<svg version="1.1" id="Layer_1" xmlns="http://www.w3.org/2000/svg" xmlns:xlink="http://www.w3.org/1999/xlink" x="0px" y="0px"
	 viewBox="0 0 1579 1600" style="enable-background:new 0 0 1579 1600;" xml:space="preserve">
<style type="text/css">
	.st0{fill:#01D770;}
</style>
<g transform="translate(0.000000,1600.000000) scale(0.100000,-0.100000)">
	<path class="st0" d="M2205,14225c-141-31-260-100-363-210c-223-239-250-605-63-879c11-17,1168-1179,2572-2584l2552-2554L4338,5432
		C1935,3027,1771,2861,1737,2795c-109-214-109-459,0-667c76-146,240-283,397-334c105-34,267-43,373-21c90,20,201,71,278,130
		c33,25,1196,1182,2583,2571c1388,1389,2525,2526,2527,2526c1,0,1136-1134,2521-2521c1386-1386,2551-2545,2589-2574
		c129-99,263-145,428-145c115,0,213,22,317,73c69,33,102,58,176,132c74,73,98,106,132,175c93,190,104,383,33,571
		c-52,138,22,61-2649,2734L8888,8000l2554,2555c1969,1971,2562,2569,2590,2617c100,164,130,359,83,544c-8,32-34,97-57,144
		c-56,115-187,247-298,303c-244,121-547,96-747-62c-27-21-1187-1178-2579-2570c-1391-1392-2532-2531-2536-2531
		c-3,0-1130,1126-2505,2501c-1374,1376-2532,2530-2573,2566c-87,75-202,134-307,157C2427,14243,2288,14244,2205,14225z"/>
</g>
</svg>
