<svg xmlns="http://www.w3.org/2000/svg" viewBox="0 0 157.85 141.96"><defs><style>.cls-1{fill:#01d770;fill-rule:evenodd;}</style></defs><g id="Layer_2" data-name="Layer 2"><g id="Layer_3" data-name="Layer 3"><path id="path-0" class="cls-1" d="M47.62,142H44.23C29.9,132.55,14,124.76.14,114.82c.66-8-2-19.44,2.91-23.25C-1.77,88.32,1.66,76.81.63,69.77,0,67.2,3.33,68.59,3.54,66.86c-5.6-3.29-1.8-16-2.91-23.74C42,34.3,76.29,18.33,108.19,0c16.48,9.51,33.63,18.37,49.41,28.59-.88,8,2.68,20.44-3.87,22.77,1.77.16,3.83,0,3.87,1.93-1.06,6.53,2.47,17.65-2.42,20.35,4.56,3.84,1.58,15.23,2.42,22.78C125.42,116.07,90.52,133,47.62,142ZM108.19,8.72c-7.62,5.62-16.39,10.1-24.71,15,11.31,6,21.21,13.35,32.46,19.38,8.59-5,17.73-9.4,25.67-15C130.24,21.88,119.69,14.82,108.19,8.72Zm42.15,23.74c-9.25,6.09-19.59,11.1-30,16V60.08c11-4.68,20.85-10.48,30.52-16.48C150,39.77,152.92,34.83,150.34,32.46ZM60.22,33a2.44,2.44,0,0,0-1,0C47.77,36.92,34,42.57,21,46.51c11.42,5.38,21.74,11.87,33,17.44,12.84-4.27,26.77-7.47,38.76-12.59C81.27,46.35,71.18,37.64,60.22,33ZM8.86,59.6c10.41,6.3,21,12.45,32,18.89,3.24,1.9,8.24,5.63,11.14,5.81,3.1.2,7.52-2.32,11.14-3.39,11.7-3.45,22.32-6.86,33-10.66a75.11,75.11,0,0,1,.48-11.14C82.23,64.49,68.1,70.05,51,72.67,37.09,64.79,22.87,57.22,8.86,49.42Zm110,14.53c.32,3.72-.63,8.71.49,11.63,10.11-5.23,20.47-10.22,30-16,.4-3.16,1.08-8.6,0-11.63C140,64.26,129.13,68.91,118.84,74.13ZM8.38,85.76C23,93.47,36.51,102.2,51,110q23.39-6.42,45.07-14.54c-.33-3.55.63-8.38-.49-11.14C89.1,87,82.28,90.08,74.76,92.54c-5.91,1.93-18,6.14-24.23,5.33-2.72-.35-6.91-3.29-10.66-5.33-10-5.43-23.72-13.26-31.49-17.45Zm110,12.11v11.62c11.43-5.53,23.12-10.78,32.46-18.4-.32-3.24.64-7.75-.48-10.18C140,86.9,129.41,92.61,118.36,97.87Zm-110,13.56c9.53,6,19.48,11.58,29.55,17.44,3.11,1.82,7.63,5.59,10.18,5.82,2.75.24,8.67-2.4,12.11-3.39,12.31-3.57,23.7-7.72,34.88-11.63-.31-3.56.65-8.39-.48-11.14-14.39,6.12-29.49,11.53-47,14.53-12.85-7.49-26.26-14.43-39.24-21.8Z"/></g></g></svg>