<svg xmlns="http://www.w3.org/2000/svg" viewBox="0 0 458.59 411.12"><defs><style>.cls-1{fill:#4eba6b;}.cls-1,.cls-2{fill-rule:evenodd;}.cls-2{fill:#257c4c;}</style></defs><g id="Layer_2" data-name="Layer 2"><g id="Layer_1-2" data-name="Layer 1"><path class="cls-1" d="M157.65,411.12A158.12,158.12,0,0,1,0,252.05C.37,164.71,71.81,94.35,159.56,94.9c86.82.55,157.18,72,156.65,159.06S244.55,411.54,157.65,411.12Zm.73-270.39C97,140.28,46.18,190.66,45.82,252.22a112.5,112.5,0,0,0,112,113.07c61.35.44,111.84-49.58,112.58-111.52C271.12,192.06,220.71,141.19,158.38,140.73Z"/><path class="cls-2" d="M339.75,47.45q-49.89,0-99.78,0c-12.56,0-18.56-5.94-18.6-18.36,0-3.95-.05-7.9,0-11.85C221.51,6.37,227.75.06,238.64,0Q301.39,0,364.11,0q36.79,0,73.6,0c15.71,0,20.9,5.21,20.84,21.1,0,3.12,0,6.25,0,9.38-.14,10.52-6.47,16.92-17,16.94Q390.62,47.51,339.75,47.45Z"/><path class="cls-2" d="M324.09,63.27q49.89,0,99.77,0c13.1,0,18.84,5.84,18.87,19.09,0,3.62,0,7.24,0,10.86-.1,11.08-6.44,17.47-17.55,17.48q-50.62.06-101.25,0c-17.94,0-35.89,0-53.83,0a12.29,12.29,0,0,1-7.75-2.47A170.12,170.12,0,0,0,210,82.3c-4.36-1.28-5-3.43-3.9-7.21,2.08-7.42,8.09-11.8,16.76-11.81Q273.46,63.24,324.09,63.27Z"/><path class="cls-2" d="M364.86,363.69q-30.62,0-61.25,0c-1.36,0-3.27.74-3.94-1-.49-1.25,1-2.31,1.74-3.34a172.77,172.77,0,0,0,21.92-39.08c1.24-3.14,3-4.1,6.27-4.09,31.94.11,63.88,0,95.82.08,10.86,0,17.22,6.44,17.3,17.19,0,4.44,0,8.89,0,13.33-.12,10.42-6.58,16.85-17.1,16.88C405.37,363.73,385.12,363.69,364.86,363.69Z"/><path class="cls-2" d="M386.59,189.77c18.11,0,36.23,0,54.34,0,11.22,0,17.5,6.26,17.6,17.38,0,4.77.13,9.55,0,14.32-.31,8.84-6.57,15.57-15.3,15.62-34.42.18-68.84.06-103.26.14-3,0-4-1.19-4.34-4a175.72,175.72,0,0,0-9.25-39.83c-1.58-4.35,1.56-3.68,3.93-3.69q28.16,0,56.32,0Z"/><path class="cls-2" d="M285.47,126.5H333q37.79,0,75.59,0,18.19,0,18.28,18.2c0,4.45.1,8.9,0,13.34-.28,9.07-6.62,15.76-15.63,15.81-29.81.16-59.62.07-89.43.1-2.07,0-3.8-.24-4.91-2.42a185.44,185.44,0,0,0-30.53-42.93A9.52,9.52,0,0,1,285.47,126.5Z"/><path class="cls-2" d="M373.05,300.46c-12.34,0-24.68-.11-37,.06-4.1.05-5.71-.91-4.53-5.37a166.75,166.75,0,0,0,5.21-37c.11-3.65,1.1-5.2,5.1-5.17,22.87.17,45.73,0,68.6.12,9.89,0,16.32,6.59,16.49,16.45.09,4.93.11,9.87,0,14.8-.23,9.53-6.73,16-16.34,16.11-12.5.13-25,0-37.5,0Z"/><path class="cls-1" d="M157.92,158.14c2.64,0,5.27,0,7.9,0,6.34.1,8.05,1.86,8.1,8.37,0,4,.2,7.92-.06,11.85-.22,3.52,1.15,5,4.59,5.49a75.27,75.27,0,0,1,22.45,7.29c3.77,1.91,5.38,4.37,3.82,8.75-1.83,5.1-3.05,10.42-4.7,15.6s-4.19,6.2-8.84,3.36c-5.49-3.34-11-6.63-17.09-8.8-7.24-2.58-14.52-3-21.71,0-9.82,4-11.23,13.43-3.09,20.23,5.52,4.61,12.15,7.21,18.74,9.79,6.91,2.71,13.72,5.59,20,9.63,12.83,8.28,18.54,20.07,17.43,35.22s-8,26.58-21.85,33.37a40.22,40.22,0,0,1-6.38,2.63c-2.5.73-3.36,2.19-3.31,4.69.1,5.11.11,10.22,0,15.32-.13,4.84-2.15,6.83-7,6.92-5.75.11-11.52,0-17.28,0-4.76.06-7-2.45-7.19-6.91-.19-4.61-.18-9.22,0-13.83.08-2.89-1-4.1-3.94-4.23-8.38-.36-16.11-3-23.46-7-3.64-2-4.83-4.45-3.49-8.49,1.7-5.15,2.91-10.46,4.44-15.67,1.7-5.82,3.9-6.73,9.46-3.86,10.4,5.38,21.15,9.17,33.13,7.67a31.6,31.6,0,0,0,5.31-1.06c9.15-2.86,11.91-12,5.91-19.55-3.25-4.1-7.67-6.72-12.36-8.81-5-2.21-10.06-4.09-15.08-6.15a89.54,89.54,0,0,1-14.42-7.55c-25.62-16.41-19.53-46.08-2.31-59.26a47.35,47.35,0,0,1,13.32-7.41c2.59-.88,3.58-2.36,3.49-5.1-.17-4.93-.08-9.88,0-14.81.08-5.82,1.93-7.65,7.7-7.75C152.65,158.11,155.29,158.14,157.92,158.14Z"/></g></g></svg>